<svg width="263" height="59" viewBox="0 0 263 59" fill="none" xmlns="http://www.w3.org/2000/svg">
<path d="M78.3457 9.64844L83.0625 22.1816L87.7681 9.64844H91.4404V26H88.6104V20.6094L88.8911 13.3994L84.062 26H82.0293L77.2114 13.4106L77.4922 20.6094V26H74.6621V9.64844H78.3457ZM100.108 26H97.278V9.64844H100.108V26ZM114.447 21.7886C114.447 21.0698 114.193 20.5158 113.683 20.1265C113.182 19.7371 112.272 19.3441 110.954 18.9473C109.637 18.5505 108.589 18.1087 107.81 17.6221C106.32 16.6862 105.575 15.4658 105.575 13.9609C105.575 12.6432 106.11 11.5576 107.181 10.7041C108.259 9.85059 109.656 9.42383 111.37 9.42383C112.508 9.42383 113.523 9.63346 114.413 10.0527C115.304 10.472 116.004 11.071 116.514 11.8496C117.023 12.6208 117.277 13.478 117.277 14.4214H114.447C114.447 13.5679 114.178 12.9015 113.639 12.4224C113.107 11.9357 112.343 11.6924 111.348 11.6924C110.419 11.6924 109.697 11.8908 109.18 12.2876C108.671 12.6844 108.416 13.2384 108.416 13.9497C108.416 14.5487 108.693 15.0503 109.247 15.4546C109.801 15.8514 110.715 16.2407 111.988 16.6226C113.26 16.9969 114.282 17.4274 115.054 17.9141C115.825 18.3932 116.39 18.9473 116.749 19.5762C117.109 20.1976 117.288 20.9276 117.288 21.7661C117.288 23.1287 116.764 24.2144 115.716 25.0229C114.676 25.8241 113.26 26.2246 111.471 26.2246C110.288 26.2246 109.199 26.0075 108.203 25.5732C107.215 25.1315 106.444 24.5251 105.89 23.7539C105.343 22.9827 105.07 22.0843 105.07 21.0586H107.911C107.911 21.987 108.218 22.7057 108.832 23.2148C109.446 23.724 110.326 23.9785 111.471 23.9785C112.459 23.9785 113.201 23.7801 113.695 23.3833C114.196 22.979 114.447 22.4474 114.447 21.7886ZM133.896 11.9395H128.797V26H125.979V11.9395H120.925V9.64844H133.896V11.9395ZM158.239 23.8774C157.648 24.6486 156.828 25.2326 155.78 25.6294C154.732 26.0262 153.541 26.2246 152.208 26.2246C150.838 26.2246 149.625 25.9139 148.57 25.2925C147.514 24.6711 146.698 23.7839 146.122 22.6309C145.553 21.4704 145.257 20.119 145.234 18.5767V17.2964C145.234 14.8257 145.826 12.8978 147.009 11.5127C148.192 10.1201 149.843 9.42383 151.961 9.42383C153.781 9.42383 155.226 9.87305 156.296 10.7715C157.367 11.6699 158.011 12.9652 158.228 14.6572H155.443C155.128 12.6882 153.987 11.7036 152.018 11.7036C150.745 11.7036 149.775 12.1641 149.109 13.085C148.45 13.9984 148.109 15.3423 148.087 17.1167V18.3745C148.087 20.1414 148.458 21.5153 149.199 22.4961C149.947 23.4694 150.984 23.9561 152.31 23.9561C153.762 23.9561 154.795 23.6266 155.409 22.9678V19.7671H152.04V17.6108H158.239V23.8774ZM172.814 22.1929H166.48L165.155 26H162.201L168.378 9.64844H170.927L177.115 26H174.151L172.814 22.1929ZM167.278 19.9019H172.017L169.647 13.1187L167.278 19.9019ZM187.288 19.6997H184.121V26H181.28V9.64844H187.03C188.916 9.64844 190.373 10.0715 191.398 10.9175C192.424 11.7635 192.937 12.9876 192.937 14.5898C192.937 15.6829 192.671 16.6001 192.14 17.3413C191.615 18.075 190.882 18.6403 189.938 19.0371L193.611 25.854V26H190.567L187.288 19.6997ZM184.121 17.4199H187.041C187.999 17.4199 188.748 17.1803 189.287 16.7012C189.826 16.2145 190.096 15.5519 190.096 14.7134C190.096 13.8374 189.845 13.1598 189.343 12.6807C188.849 12.2015 188.108 11.9544 187.12 11.9395H184.121V17.4199ZM197.932 26V9.64844H202.761C204.206 9.64844 205.487 9.97038 206.602 10.6143C207.725 11.2581 208.594 12.1715 209.208 13.3545C209.822 14.5374 210.129 15.8926 210.129 17.4199V18.2397C210.129 19.7896 209.818 21.1522 209.196 22.3276C208.582 23.5031 207.703 24.409 206.557 25.0454C205.419 25.6818 204.113 26 202.638 26H197.932ZM200.774 11.9395V23.7314H202.627C204.116 23.7314 205.258 23.2673 206.052 22.3389C206.853 21.403 207.261 20.0628 207.276 18.3184V17.4087C207.276 15.6343 206.89 14.2791 206.119 13.3433C205.348 12.4074 204.229 11.9395 202.761 11.9395H200.774ZM224.816 18.7002H218.1V23.7314H225.95V26H215.259V9.64844H225.871V11.9395H218.1V16.4541H224.816V18.7002ZM243.535 26H240.693L233.405 14.3989V26H230.563V9.64844H233.405L240.716 21.2944V9.64844H243.535V26ZM257.739 21.7886C257.739 21.0698 257.484 20.5158 256.975 20.1265C256.474 19.7371 255.564 19.3441 254.246 18.9473C252.929 18.5505 251.88 18.1087 251.102 17.6221C249.612 16.6862 248.867 15.4658 248.867 13.9609C248.867 12.6432 249.402 11.5576 250.473 10.7041C251.551 9.85059 252.947 9.42383 254.662 9.42383C255.8 9.42383 256.814 9.63346 257.705 10.0527C258.596 10.472 259.296 11.071 259.805 11.8496C260.314 12.6208 260.569 13.478 260.569 14.4214H257.739C257.739 13.5679 257.469 12.9015 256.93 12.4224C256.399 11.9357 255.635 11.6924 254.639 11.6924C253.711 11.6924 252.988 11.8908 252.472 12.2876C251.963 12.6844 251.708 13.2384 251.708 13.9497C251.708 14.5487 251.985 15.0503 252.539 15.4546C253.093 15.8514 254.007 16.2407 255.279 16.6226C256.552 16.9969 257.574 17.4274 258.345 17.9141C259.117 18.3932 259.682 18.9473 260.041 19.5762C260.401 20.1976 260.58 20.9276 260.58 21.7661C260.58 23.1287 260.056 24.2144 259.008 25.0229C257.967 25.8241 256.552 26.2246 254.763 26.2246C253.58 26.2246 252.491 26.0075 251.495 25.5732C250.507 25.1315 249.735 24.5251 249.181 23.7539C248.635 22.9827 248.362 22.0843 248.362 21.0586H251.203C251.203 21.987 251.51 22.7057 252.124 23.2148C252.738 23.724 253.617 23.9785 254.763 23.9785C255.751 23.9785 256.492 23.7801 256.987 23.3833C257.488 22.979 257.739 22.4474 257.739 21.7886Z" fill="#343D33"/>
<path d="M77.021 38.3359L78.8887 47.0225L83.7812 38.3359H85.5903L83.7373 49H82.3677L83.1001 44.7812L83.9717 40.4893L79.1377 49H78.083L76.1787 40.3208L75.5195 44.9204L74.8091 49H73.4321L75.2852 38.3359H77.021ZM91.1822 48.2163C90.5621 48.856 89.7735 49.166 88.8165 49.1465C88.0597 49.127 87.4981 48.856 87.1319 48.3335C86.7706 47.811 86.6363 47.0981 86.7291 46.1948L87.5787 41.0752H88.9044L88.0475 46.2168C88.023 46.4316 88.0182 46.6416 88.0328 46.8467C88.0572 47.1982 88.1622 47.4741 88.3478 47.6743C88.5333 47.8745 88.7921 47.9819 89.1241 47.9966C90.0714 48.0259 90.8038 47.6426 91.3214 46.8467L92.3175 41.0752H93.6432L92.2662 49H91.0138L91.1822 48.2163ZM99.3083 46.854C99.3815 46.3071 99.0812 45.9214 98.4074 45.6968L97.0305 45.2939C95.8684 44.8936 95.3068 44.2295 95.3459 43.3018C95.3801 42.6035 95.6975 42.0322 96.298 41.5879C96.9035 41.1387 97.614 40.9189 98.4294 40.9287C99.2302 40.9385 99.8796 41.1729 100.378 41.6318C100.881 42.0859 101.122 42.6792 101.103 43.4116L99.7844 43.4043C99.7941 43.0088 99.6696 42.6865 99.4108 42.4375C99.1521 42.1885 98.8078 42.0591 98.3781 42.0493C97.9191 42.0396 97.5236 42.1519 97.1916 42.3862C96.884 42.606 96.7058 42.894 96.6569 43.2505C96.5935 43.7095 96.8742 44.0439 97.4992 44.2539L98.1657 44.437C99.0739 44.6714 99.7185 44.9766 100.099 45.3525C100.48 45.7285 100.656 46.1948 100.627 46.7515C100.597 47.2446 100.436 47.6743 100.143 48.0405C99.8503 48.4067 99.4597 48.6875 98.9714 48.8828C98.4831 49.0732 97.9631 49.1611 97.4113 49.1465C96.5715 49.1367 95.8781 48.8926 95.3312 48.4141C94.7844 47.9307 94.5207 47.3105 94.5402 46.5537L95.8659 46.561C95.8659 47.0054 96.0075 47.3618 96.2907 47.6304C96.5739 47.8989 96.9621 48.0332 97.4553 48.0332C97.9387 48.043 98.3562 47.9429 98.7077 47.7329C99.0593 47.5181 99.2595 47.2251 99.3083 46.854ZM105.552 49.1465C104.566 49.127 103.794 48.7632 103.238 48.0552C102.681 47.3472 102.447 46.4414 102.534 45.3379L102.571 45.0229C102.654 44.2368 102.886 43.519 103.267 42.8696C103.653 42.2202 104.121 41.7319 104.673 41.4048C105.225 41.0728 105.821 40.9141 106.46 40.9287C107.276 40.9482 107.915 41.2192 108.379 41.7417C108.843 42.2642 109.097 42.9722 109.141 43.8657C109.156 44.1831 109.146 44.5005 109.112 44.8179L109.031 45.4258H103.853C103.765 46.1436 103.882 46.7539 104.204 47.2568C104.532 47.7598 105.017 48.021 105.662 48.0405C106.443 48.0601 107.166 47.7085 107.83 46.9858L108.592 47.6304C108.26 48.1089 107.83 48.4849 107.303 48.7583C106.78 49.0269 106.197 49.1562 105.552 49.1465ZM106.394 42.0347C105.847 42.02 105.369 42.2056 104.959 42.5913C104.554 42.9771 104.231 43.5508 103.992 44.3125L107.845 44.3198L107.874 44.2026C107.952 43.5874 107.852 43.0771 107.574 42.6719C107.3 42.2617 106.907 42.0493 106.394 42.0347ZM115.084 48.2163C114.464 48.856 113.676 49.166 112.719 49.1465C111.962 49.127 111.4 48.856 111.034 48.3335C110.673 47.811 110.538 47.0981 110.631 46.1948L111.481 41.0752H112.807L111.95 46.2168C111.925 46.4316 111.92 46.6416 111.935 46.8467C111.959 47.1982 112.064 47.4741 112.25 47.6743C112.435 47.8745 112.694 47.9819 113.026 47.9966C113.974 48.0259 114.706 47.6426 115.224 46.8467L116.22 41.0752H117.545L116.168 49H114.916L115.084 48.2163ZM120.918 41.0679L120.75 41.9541C121.414 41.251 122.217 40.9092 123.159 40.9287C123.662 40.9385 124.087 41.0532 124.434 41.2729C124.785 41.4927 125.027 41.8027 125.159 42.2031C125.901 41.334 126.777 40.9092 127.788 40.9287C128.579 40.9482 129.163 41.2144 129.539 41.7271C129.915 42.2397 130.054 42.9282 129.956 43.7925L129.084 49H127.766L128.63 43.7778C128.66 43.5239 128.66 43.292 128.63 43.082C128.538 42.418 128.103 42.0786 127.327 42.064C126.843 42.0542 126.404 42.2056 126.008 42.5181C125.618 42.8257 125.366 43.231 125.254 43.7339L124.353 49H123.02L123.899 43.7852C123.962 43.2432 123.879 42.8257 123.65 42.5327C123.425 42.2397 123.074 42.0884 122.595 42.0786C121.77 42.0591 121.113 42.4351 120.625 43.2065L119.622 49H118.296L119.673 41.0752L120.918 41.0679ZM135.405 46.1875C135.478 45.2793 136.02 44.4688 137.031 43.7559L137.866 43.1992L137.551 42.6353C137.199 41.9907 137.043 41.3926 137.082 40.8408C137.141 40.0352 137.434 39.3882 137.961 38.8999C138.488 38.4067 139.153 38.1699 139.953 38.1895C140.612 38.1992 141.157 38.4141 141.587 38.834C142.016 39.249 142.212 39.7666 142.173 40.3867C142.129 41.2266 141.609 41.9956 140.612 42.6938L139.536 43.4116L141.36 46.2021C141.804 45.543 142.082 44.835 142.195 44.0781H143.374C143.242 45.3232 142.8 46.3657 142.048 47.2056L143.198 49H141.718L141.184 48.1724C140.334 48.8364 139.399 49.1587 138.379 49.1392C137.456 49.1294 136.714 48.8511 136.152 48.3042C135.591 47.7524 135.342 47.0469 135.405 46.1875ZM138.423 48.0405C139.077 48.0552 139.77 47.7793 140.503 47.2129L138.518 44.1074L138.203 44.3271C137.329 44.9326 136.845 45.5552 136.753 46.1948C136.679 46.7222 136.797 47.1592 137.104 47.5059C137.412 47.8525 137.851 48.0308 138.423 48.0405ZM138.386 40.7896C138.347 41.1997 138.467 41.6514 138.745 42.1445L138.943 42.4888L140.063 41.7344C140.586 41.3438 140.874 40.8921 140.927 40.3794C140.957 40.0669 140.871 39.8081 140.671 39.603C140.471 39.3979 140.205 39.2954 139.873 39.2954C139.467 39.2954 139.128 39.4443 138.855 39.7422C138.581 40.0352 138.425 40.3843 138.386 40.7896ZM148.42 49L150.273 38.3359L153.4 38.3433C154.489 38.3433 155.305 38.5874 155.847 39.0757C156.389 39.564 156.625 40.2451 156.557 41.1191C156.469 42.1396 155.827 42.9087 154.631 43.4263C155.109 43.6118 155.466 43.9292 155.7 44.3784C155.939 44.8276 156.037 45.3232 155.993 45.8652C155.92 46.8271 155.534 47.5913 154.836 48.1577C154.138 48.7192 153.234 49 152.126 49H148.42ZM150.661 44.0122L149.995 47.8501L152.17 47.8574C152.834 47.8574 153.391 47.6792 153.84 47.3228C154.289 46.9663 154.55 46.4854 154.623 45.8799C154.692 45.3037 154.592 44.8545 154.323 44.5322C154.055 44.21 153.632 44.0391 153.056 44.0195L150.661 44.0122ZM150.859 42.8843L152.844 42.8916C153.464 42.8916 153.986 42.7329 154.411 42.4155C154.841 42.0981 155.092 41.6611 155.165 41.1045C155.229 40.5869 155.126 40.1963 154.858 39.9326C154.594 39.6689 154.155 39.5249 153.539 39.5005L151.445 39.4932L150.859 42.8843ZM161.907 40.9287C162.571 40.9385 163.14 41.1191 163.614 41.4707C164.087 41.8223 164.437 42.3081 164.661 42.9282C164.891 43.5435 164.969 44.2173 164.896 44.9497L164.881 45.1108C164.788 45.8823 164.559 46.5806 164.192 47.2056C163.826 47.8257 163.353 48.3091 162.771 48.6558C162.19 49.0024 161.553 49.166 160.86 49.1465C160.201 49.1367 159.632 48.9561 159.153 48.6045C158.68 48.2529 158.333 47.7744 158.113 47.1689C157.894 46.5635 157.815 45.897 157.879 45.1694C157.952 44.3491 158.174 43.6118 158.545 42.9575C158.917 42.3032 159.393 41.7979 159.974 41.4414C160.56 41.0801 161.204 40.9092 161.907 40.9287ZM159.212 45.1768C159.178 45.4844 159.178 45.8042 159.212 46.1362C159.261 46.7124 159.432 47.1714 159.725 47.5132C160.022 47.855 160.418 48.0332 160.911 48.0479C161.351 48.0625 161.756 47.9551 162.127 47.7256C162.498 47.4912 162.811 47.1396 163.064 46.6709C163.318 46.2021 163.482 45.6821 163.555 45.1108C163.594 44.6616 163.602 44.2832 163.577 43.9756C163.519 43.3848 163.34 42.9185 163.042 42.5767C162.745 42.2349 162.349 42.0542 161.856 42.0347C161.172 42.02 160.591 42.2886 160.113 42.8403C159.634 43.3921 159.339 44.1147 159.227 45.0083L159.212 45.1768ZM169.535 39.1562L169.198 41.0752H170.641L170.458 42.1226H169.023L168.195 47.0518C168.18 47.1787 168.178 47.2959 168.188 47.4033C168.222 47.7842 168.429 47.9746 168.81 47.9746C168.971 47.9746 169.186 47.9502 169.455 47.9014L169.352 49.0073C169.035 49.0952 168.713 49.1392 168.385 49.1392C167.858 49.1294 167.463 48.9365 167.199 48.5605C166.935 48.1797 166.833 47.6694 166.891 47.0298L167.697 42.1226H166.298L166.481 41.0752H167.88L168.217 39.1562H169.535ZM175.867 49C175.833 48.8584 175.816 48.7192 175.816 48.5825L175.838 48.165C175.11 48.8389 174.339 49.166 173.523 49.1465C172.825 49.1367 172.256 48.917 171.817 48.4873C171.382 48.0527 171.184 47.5107 171.223 46.8613C171.272 46.0215 171.638 45.3672 172.322 44.8984C173.01 44.4248 173.914 44.188 175.032 44.188L176.416 44.1953L176.504 43.5654C176.553 43.0918 176.46 42.7183 176.226 42.4448C175.996 42.1665 175.65 42.0225 175.186 42.0127C174.732 42.0029 174.329 42.1152 173.977 42.3496C173.631 42.5791 173.418 42.8843 173.34 43.2651L172.007 43.2725C172.051 42.8086 172.232 42.3984 172.549 42.042C172.866 41.6807 173.274 41.4023 173.772 41.207C174.27 41.0068 174.785 40.9116 175.318 40.9214C176.143 40.9409 176.785 41.1924 177.244 41.6758C177.703 42.1543 177.896 42.7915 177.822 43.5874L177.178 47.5132L177.141 48.0771C177.132 48.3457 177.161 48.6118 177.229 48.8755L177.215 49H175.867ZM173.787 47.9746C174.212 47.9844 174.612 47.8843 174.988 47.6743C175.369 47.4595 175.696 47.1641 175.969 46.7881L176.255 45.1548L175.252 45.1475C174.417 45.1475 173.777 45.2793 173.333 45.543C172.888 45.8066 172.637 46.1802 172.578 46.6636C172.534 47.0347 172.62 47.3447 172.835 47.5938C173.054 47.8379 173.372 47.9648 173.787 47.9746ZM181.796 41.0679L181.605 42.0713C182.318 41.29 183.129 40.9092 184.037 40.9287C184.784 40.9482 185.336 41.207 185.692 41.7051C186.049 42.2031 186.18 42.9038 186.088 43.8071L185.223 49H183.898L184.769 43.7852C184.799 43.5459 184.801 43.3237 184.777 43.1187C184.694 42.4351 184.291 42.0859 183.568 42.0713C182.772 42.0566 182.074 42.4814 181.473 43.3457L180.492 49H179.166L180.543 41.0752L181.796 41.0679ZM188.852 49H187.534L188.911 41.0752H190.229L188.852 49ZM189.944 38.1821C190.168 38.1724 190.354 38.2407 190.5 38.3872C190.652 38.5288 190.727 38.7168 190.727 38.9512C190.723 39.1807 190.647 39.3687 190.5 39.5151C190.359 39.6616 190.173 39.7397 189.944 39.7495C189.714 39.7593 189.526 39.6934 189.38 39.5518C189.233 39.4102 189.162 39.2246 189.167 38.9951C189.172 38.7656 189.246 38.5752 189.387 38.4238C189.529 38.2725 189.714 38.1919 189.944 38.1821ZM194.518 48.0479C194.991 48.0576 195.418 47.9209 195.799 47.6377C196.18 47.3496 196.429 46.9736 196.546 46.5098L197.799 46.5024C197.726 47.0005 197.525 47.4546 197.198 47.8647C196.876 48.2749 196.468 48.5947 195.975 48.8242C195.482 49.0537 194.977 49.1611 194.459 49.1465C193.8 49.1367 193.241 48.9658 192.782 48.6338C192.328 48.2969 191.993 47.8306 191.778 47.2349C191.563 46.6343 191.49 45.9604 191.559 45.2134L191.595 44.8472C191.688 44.0854 191.91 43.4043 192.262 42.8037C192.613 42.2031 193.072 41.7368 193.639 41.4048C194.205 41.0679 194.83 40.9092 195.514 40.9287C196.344 40.9482 197.008 41.2266 197.506 41.7637C198.004 42.3008 198.253 42.9819 198.253 43.8071L197.015 43.7998C197.005 43.2822 196.861 42.8647 196.583 42.5474C196.305 42.2251 195.929 42.0542 195.455 42.0347C194.767 42.02 194.193 42.2764 193.734 42.8037C193.28 43.3311 192.997 44.0684 192.884 45.0156L192.862 45.2061C192.833 45.5186 192.828 45.8408 192.848 46.1729C192.882 46.7441 193.043 47.1958 193.331 47.5278C193.619 47.8599 194.015 48.0332 194.518 48.0479ZM203.859 49C203.825 48.8584 203.808 48.7192 203.808 48.5825L203.83 48.165C203.103 48.8389 202.331 49.166 201.516 49.1465C200.817 49.1367 200.249 48.917 199.809 48.4873C199.375 48.0527 199.177 47.5107 199.216 46.8613C199.265 46.0215 199.631 45.3672 200.315 44.8984C201.003 44.4248 201.906 44.188 203.025 44.188L204.409 44.1953L204.497 43.5654C204.546 43.0918 204.453 42.7183 204.218 42.4448C203.989 42.1665 203.642 42.0225 203.178 42.0127C202.724 42.0029 202.321 42.1152 201.97 42.3496C201.623 42.5791 201.411 42.8843 201.333 43.2651L200 43.2725C200.044 42.8086 200.224 42.3984 200.542 42.042C200.859 41.6807 201.267 41.4023 201.765 41.207C202.263 41.0068 202.778 40.9116 203.31 40.9214C204.135 40.9409 204.777 41.1924 205.236 41.6758C205.695 42.1543 205.888 42.7915 205.815 43.5874L205.171 47.5132L205.134 48.0771C205.124 48.3457 205.153 48.6118 205.222 48.8755L205.207 49H203.859ZM201.779 47.9746C202.204 47.9844 202.605 47.8843 202.981 47.6743C203.361 47.4595 203.689 47.1641 203.962 46.7881L204.248 45.1548L203.244 45.1475C202.409 45.1475 201.77 45.2793 201.325 45.543C200.881 45.8066 200.629 46.1802 200.571 46.6636C200.527 47.0347 200.612 47.3447 200.827 47.5938C201.047 47.8379 201.364 47.9648 201.779 47.9746ZM208.594 49H207.276L209.224 37.75H210.55L208.594 49ZM222.913 47.5938C222.557 48.0967 222.037 48.4849 221.353 48.7583C220.674 49.0269 219.898 49.1562 219.024 49.1465C218.326 49.1318 217.715 48.9683 217.193 48.6558C216.67 48.3433 216.26 47.8965 215.962 47.3154C215.664 46.7295 215.494 46.0654 215.45 45.3232C215.415 44.7422 215.486 43.9561 215.662 42.9648C215.843 41.9736 216.155 41.1167 216.6 40.394C217.044 39.6714 217.598 39.1196 218.262 38.7388C218.931 38.3579 219.695 38.1748 220.555 38.1895C221.546 38.209 222.334 38.5044 222.92 39.0757C223.511 39.6421 223.848 40.4404 223.931 41.4707H222.569C222.515 40.7969 222.312 40.2793 221.961 39.918C221.609 39.5566 221.123 39.3662 220.503 39.3467C219.585 39.3125 218.816 39.6421 218.196 40.3354C217.581 41.0288 217.176 42.042 216.98 43.375L216.841 44.4004L216.819 44.957C216.819 45.9189 217.017 46.6636 217.413 47.1909C217.808 47.7134 218.362 47.9795 219.075 47.9893C220.105 48.0137 220.923 47.7598 221.529 47.2275L221.968 44.8325H219.566L219.771 43.6899H223.521L222.913 47.5938ZM229.728 49C229.694 48.8584 229.677 48.7192 229.677 48.5825L229.699 48.165C228.971 48.8389 228.2 49.166 227.384 49.1465C226.686 49.1367 226.117 48.917 225.678 48.4873C225.243 48.0527 225.045 47.5107 225.084 46.8613C225.133 46.0215 225.5 45.3672 226.183 44.8984C226.872 44.4248 227.775 44.188 228.893 44.188L230.277 44.1953L230.365 43.5654C230.414 43.0918 230.321 42.7183 230.087 42.4448C229.857 42.1665 229.511 42.0225 229.047 42.0127C228.593 42.0029 228.19 42.1152 227.838 42.3496C227.492 42.5791 227.279 42.8843 227.201 43.2651L225.868 43.2725C225.912 42.8086 226.093 42.3984 226.41 42.042C226.728 41.6807 227.135 41.4023 227.633 41.207C228.131 41.0068 228.646 40.9116 229.179 40.9214C230.004 40.9409 230.646 41.1924 231.105 41.6758C231.564 42.1543 231.757 42.7915 231.684 43.5874L231.039 47.5132L231.002 48.0771C230.993 48.3457 231.022 48.6118 231.09 48.8755L231.076 49H229.728ZM227.648 47.9746C228.073 47.9844 228.473 47.8843 228.849 47.6743C229.23 47.4595 229.557 47.1641 229.831 46.7881L230.116 45.1548L229.113 45.1475C228.278 45.1475 227.638 45.2793 227.194 45.543C226.75 45.8066 226.498 46.1802 226.439 46.6636C226.396 47.0347 226.481 47.3447 226.696 47.5938C226.916 47.8379 227.233 47.9648 227.648 47.9746ZM237.957 42.2837L237.334 42.2178C236.484 42.2178 235.816 42.6011 235.327 43.3677L234.353 49H233.027L234.404 41.0752L235.686 41.0679L235.488 41.9907C236.05 41.2534 236.712 40.8945 237.473 40.9141C237.634 40.9141 237.844 40.9507 238.103 41.0239L237.957 42.2837ZM238.407 45.0229C238.505 44.2173 238.727 43.4897 239.073 42.8403C239.42 42.1909 239.847 41.7051 240.355 41.3828C240.863 41.0605 241.422 40.9067 242.032 40.9214C242.916 40.9409 243.595 41.2632 244.069 41.8882L244.83 37.75H246.156L244.208 49H242.999L243.138 48.1504C242.513 48.834 241.742 49.166 240.824 49.1465C240.092 49.127 239.508 48.8413 239.073 48.2896C238.639 47.7329 238.404 46.9883 238.37 46.0557C238.356 45.7676 238.368 45.4233 238.407 45.0229ZM239.681 45.7847C239.667 46.4829 239.791 47.0249 240.055 47.4106C240.319 47.7964 240.704 47.9941 241.212 48.0039C241.979 48.0381 242.66 47.6523 243.256 46.8467L243.885 43.1846C243.592 42.4619 243.06 42.0908 242.289 42.0713C241.766 42.0566 241.305 42.2153 240.904 42.5474C240.509 42.8745 240.206 43.3359 239.996 43.9316C239.791 44.5225 239.686 45.1401 239.681 45.7847ZM249.88 49.1465C248.894 49.127 248.122 48.7632 247.566 48.0552C247.009 47.3472 246.775 46.4414 246.863 45.3379L246.899 45.0229C246.982 44.2368 247.214 43.519 247.595 42.8696C247.981 42.2202 248.45 41.7319 249.001 41.4048C249.553 41.0728 250.149 40.9141 250.788 40.9287C251.604 40.9482 252.243 41.2192 252.707 41.7417C253.171 42.2642 253.425 42.9722 253.469 43.8657C253.484 44.1831 253.474 44.5005 253.44 44.8179L253.359 45.4258H248.181C248.093 46.1436 248.21 46.7539 248.533 47.2568C248.86 47.7598 249.346 48.021 249.99 48.0405C250.771 48.0601 251.494 47.7085 252.158 46.9858L252.92 47.6304C252.588 48.1089 252.158 48.4849 251.631 48.7583C251.108 49.0269 250.525 49.1562 249.88 49.1465ZM250.722 42.0347C250.176 42.02 249.697 42.2056 249.287 42.5913C248.882 42.9771 248.559 43.5508 248.32 44.3125L252.173 44.3198L252.202 44.2026C252.28 43.5874 252.18 43.0771 251.902 42.6719C251.628 42.2617 251.235 42.0493 250.722 42.0347ZM257.01 41.0679L256.82 42.0713C257.533 41.29 258.343 40.9092 259.251 40.9287C259.998 40.9482 260.55 41.207 260.907 41.7051C261.263 42.2031 261.395 42.9038 261.302 43.8071L260.438 49H259.112L259.984 43.7852C260.013 43.5459 260.016 43.3237 259.991 43.1187C259.908 42.4351 259.505 42.0859 258.783 42.0713C257.987 42.0566 257.288 42.4814 256.688 43.3457L255.706 49H254.381L255.758 41.0752L257.01 41.0679Z" fill="#333333"/>
<path fill-rule="evenodd" clip-rule="evenodd" d="M29.5 59C45.7924 59 59 45.7924 59 29.5C59 13.2076 45.7924 0 29.5 0C13.2076 0 0 13.2076 0 29.5C0 37.9333 3.53873 45.5401 9.2123 50.9164C9.94271 50.4585 10.668 49.9953 11.3878 49.527C11.4599 49.1224 11.5463 48.6324 11.643 48.075C11.6936 47.7905 11.7479 47.4891 11.8115 47.1747C11.8608 46.9215 11.9174 46.6612 11.9761 46.3911L12.0006 46.2782C12.2437 45.1674 12.4987 43.9193 12.7073 42.6112H12.6186C10.2902 42.6542 8.15457 42.0253 6.92111 40.6365C6.35773 40.0039 5.959 39.2122 5.84109 38.2632C5.71568 37.2487 5.91036 36.0527 6.48871 34.6696L6.57851 34.4131L6.97161 34.4992C8.47459 34.7912 10.3987 35.1805 11.7089 36.88C12.3123 37.661 12.786 38.7231 13.0219 40.1906C13.0438 39.9653 13.0634 39.7396 13.0805 39.5138C13.1819 38.1825 13.2057 36.8538 13.097 35.6037C10.5628 34.6049 8.52982 31.6399 7.93935 28.4049C7.711 27.1528 7.69037 25.8594 7.95054 24.6484C8.34734 22.801 9.35812 21.1409 11.0726 20.0253L11.2523 19.8979L11.5349 20.1357C13.7623 21.9531 14.8796 24.5286 15.1828 27.3155C15.4692 29.9659 15.0088 32.8071 14.0655 35.3676L13.9182 35.7503C14.1029 36.9679 14.1735 38.2605 14.1624 39.5606C14.1399 42.0368 13.8368 44.5356 13.4568 46.5739C13.3988 46.8921 13.3351 47.1991 13.2658 47.4929C13.1891 47.813 13.1068 48.1162 13.0226 48.4007L13.005 48.4593C18.021 45.0993 22.7398 41.4767 26.9851 37.5739C26.9736 37.4157 26.9557 37.1082 26.952 36.6875C26.9501 36.4872 26.9502 36.2664 26.9689 36.023C26.9871 35.81 27.0192 35.5837 27.0529 35.346L27.0529 35.3459L27.0529 35.3459L27.0529 35.3458L27.053 35.3457L27.053 35.3453L27.053 35.3451L27.0531 35.3449L27.0531 35.3447L27.0531 35.3443L27.0532 35.344L27.0533 35.3436L27.0533 35.343C27.0749 35.1911 27.0971 35.0346 27.1167 34.8738C27.1903 34.2838 27.2657 33.6494 27.3061 33.0058C25.7672 31.9707 24.46 30.5058 23.609 28.9536C23.1935 28.1974 22.8866 27.4207 22.7069 26.6758C22.5141 25.8728 22.4504 25.1053 22.5515 24.4315C22.7443 23.1363 23.4201 22.1536 24.6966 21.8336C25.6044 21.4873 26.5702 21.8243 27.4124 22.6292C28.2584 23.4377 28.9734 24.7366 29.3534 26.2284C29.886 28.3331 29.7254 30.8045 28.3819 32.8294C28.4182 33.144 28.4459 33.4595 28.4662 33.7714C28.5018 34.2917 28.5186 34.797 28.5073 35.2687C28.4987 35.6003 28.4884 35.9126 28.4511 36.1966C31.2038 33.5532 33.7374 30.7843 35.9996 27.8849C36.6081 27.1066 37.1078 26.379 37.5518 25.63L37.3541 25.2532C36.2835 23.271 35.6451 20.6806 35.6769 18.2474C35.6919 17.1524 35.8417 16.0893 36.1374 15.1347C36.4425 14.1521 36.8879 13.2761 37.4944 12.5966C38.4433 11.5298 39.7368 10.8991 41.4101 11.0133C42.4751 10.9908 43.2107 11.6215 43.6374 12.6584C44.242 14.1259 44.182 16.4767 43.5437 18.777C42.7561 21.6111 41.0671 24.3201 38.7957 25.3313C38.252 26.4117 37.634 27.4113 36.8213 28.5082C36.3925 29.0866 35.9534 29.6603 35.5044 30.2294C35.7558 30.1124 36.017 29.9984 36.286 29.8875C36.7154 29.7113 37.1631 29.5457 37.6236 29.3991C38.4807 27.7273 39.989 26.2437 41.6692 25.2792C42.4422 24.8356 43.2507 24.5025 44.035 24.306C44.8622 24.0982 45.6634 24.0271 46.3728 24.1319C47.6904 24.3266 48.7142 25.0191 49.0661 26.3574C49.4348 27.312 49.4292 28.1037 49.1821 28.7513C48.7872 29.7938 47.7241 30.4826 46.3447 30.8663C43.6737 31.6113 39.803 31.1919 37.8883 30.4114L37.887 30.4109C37.8058 30.4506 37.7251 30.4908 37.6449 30.5314C36.8081 30.9554 36.0595 31.4558 35.3941 31.9006L35.394 31.9006C35.1813 32.0428 34.9771 32.1792 34.7812 32.3057C34.431 32.5324 34.1062 32.7174 33.8265 32.8767L33.8135 32.8841C33.3308 33.1571 32.993 33.3287 32.8695 33.3902C29.743 36.9477 26.2326 40.3158 22.4375 43.4984C22.5555 43.4816 22.6783 43.4657 22.8058 43.4515C23.0123 43.4287 23.2294 43.4079 23.455 43.3862C24.2293 43.312 25.1041 43.2282 25.9969 43.0209C26.2616 42.9591 26.5278 42.8907 26.7932 42.8139L26.8956 42.5907C28.1122 39.8486 30.2833 38.3044 32.7277 37.6063C33.7235 37.3236 34.7642 37.1795 35.7974 37.1627C37.3958 37.1383 38.9643 37.4061 40.3232 37.7785L40.6956 37.8646L40.5291 38.3175C39.3967 41.5818 37.3358 43.2139 35.1123 43.9177C32.4327 44.7651 29.489 44.2352 27.5547 43.5084C26.8491 43.8656 26.1183 44.1497 25.4055 44.376C24.8234 44.5613 24.26 44.7092 23.7285 44.8102C23.3223 44.8889 22.9387 44.9544 22.5868 44.975C22.2218 44.9937 21.898 44.975 21.6228 44.9506C21.2466 44.9165 20.969 44.87 20.8091 44.8387C17.6043 47.4284 14.2142 49.8916 10.6952 52.2305C15.8003 56.4587 22.3534 59 29.5 59ZM13.4697 33.7014C14.1311 31.6569 14.4544 29.4734 14.2919 27.3979C14.0991 24.9273 13.2232 22.612 11.4001 20.8844C10.1311 21.9401 9.47978 23.3682 9.22523 24.8899C9.04555 25.9568 9.0642 27.0741 9.25699 28.1672C9.70457 30.7106 11.0556 33.1327 12.9181 34.2467C12.7767 33.4689 12.5691 32.7373 12.2795 32.0737C12.2196 31.9502 12.272 31.8005 12.3955 31.7406C12.5209 31.6807 12.6707 31.7332 12.7306 31.8567C13.029 32.4212 13.2731 33.0409 13.4697 33.7014ZM27.5828 29.6835C27.7531 30.0423 27.8942 30.4371 28.0107 30.8544C28.6114 29.4345 28.6624 27.8545 28.38 26.4492C28.06 24.8564 27.3263 23.4733 26.4223 22.7957C25.945 22.4382 25.4265 22.2772 24.9081 22.4419C24.1968 22.7676 23.8712 23.3665 23.7663 24.0946C23.6728 24.7478 23.7981 25.4984 24.0508 26.3032C24.2511 26.9359 24.5393 27.5929 24.8987 28.2461C25.5075 29.3535 26.3253 30.4501 27.3172 31.3355C27.2882 30.8145 27.2226 30.317 27.098 29.865C27.0493 29.7322 27.1167 29.5825 27.2496 29.5319C27.3843 29.4833 27.5323 29.5506 27.5828 29.6835ZM29.6318 42.1357C29.3767 42.3569 29.1091 42.5624 28.8324 42.7533C30.5232 43.3038 32.7581 43.6265 34.8521 43.0418C36.7819 42.5009 38.5805 41.1812 39.7279 38.5664C38.2792 38.3418 36.634 38.3139 35.0113 38.5235C33.9088 38.6657 32.8119 38.9128 31.7975 39.3638C30.4804 39.9496 29.2982 40.8514 28.4335 42.206C28.7386 42.0624 29.0363 41.9014 29.323 41.7201C29.4372 41.6358 29.6 41.6603 29.6843 41.7744C29.7704 41.8886 29.746 42.0496 29.6318 42.1357ZM39.6958 29.6637C41.5504 30.1738 44.1612 30.4076 46.1163 29.966C47.8944 29.5617 49.111 28.5716 48.4578 26.5745C48.1096 25.8164 47.4807 25.4627 46.7264 25.3486C46.0377 25.2437 45.2478 25.3766 44.4167 25.6462C43.7523 25.8595 43.071 26.1702 42.4028 26.5557C41.3332 27.1717 40.3047 27.9812 39.5237 28.9329C40.0549 28.844 40.5928 28.7911 41.13 28.7851C41.2723 28.7739 41.3976 28.8786 41.4089 29.0209C41.4201 29.1631 41.3153 29.2885 41.1731 29.2997C40.6721 29.3792 40.1785 29.5052 39.6958 29.6637ZM40.5553 21.0663C40.2633 21.8764 39.9916 22.602 39.7202 23.2724C41.0214 22.1471 41.9962 20.334 42.5855 18.4907C43.2481 16.4206 43.4258 14.2887 42.9336 12.9317C42.6584 12.1774 42.1737 11.6758 41.4101 11.659C40.2833 11.7394 39.4373 12.2036 38.7878 12.8886C38.1495 13.5624 37.7414 14.4759 37.4794 15.5128C37.2642 16.3663 37.1612 17.3003 37.1481 18.2661C37.1257 20.2782 37.5076 22.4175 38.2806 24.1563L38.3207 24.1407L38.3603 24.1249C38.8361 23.1492 39.2807 22.0752 39.788 20.7781C39.8666 20.5647 40.1043 20.4579 40.3158 20.5366C40.5292 20.617 40.6358 20.8548 40.5553 21.0663ZM7.24304 35.231C6.96977 36.3372 6.96602 37.2693 7.12137 38.0592C7.25427 38.733 7.52565 39.2927 7.92619 39.7513C8.83959 40.7994 10.3519 41.3366 12.057 41.4583C12.0233 39.5884 11.6153 38.3063 10.9883 37.4097C10 35.9947 8.5027 35.5436 7.24304 35.231Z" fill="#343D33"/>
</svg>
